<mxfile host="app.diagrams.net" modified="2021-09-22T08:51:39.380Z" agent="5.0 (Windows NT 10.0; Win64; x64) AppleWebKit/537.36 (KHTML, like Gecko) Chrome/94.0.4603.0 Safari/537.36" etag="YZB4AIkEPppiiC0Lg66y" version="15.2.9" type="github">
  <diagram id="En8JmT4x3YTe0htqKZtp" name="Page-1">
    <mxGraphModel dx="942" dy="596" grid="1" gridSize="10" guides="1" tooltips="1" connect="1" arrows="1" fold="1" page="1" pageScale="1" pageWidth="827" pageHeight="1169" math="0" shadow="0">
      <root>
        <mxCell id="0" />
        <mxCell id="1" parent="0" />
        <mxCell id="nwLATBw_GkCe2qfeqM7C-1" value="新加坡09" style="rounded=0;whiteSpace=wrap;html=1;imageAspect=0;gradientDirection=east;direction=east;fillColor=#dae8fc;strokeColor=#6c8ebf;" parent="1" vertex="1">
          <mxGeometry x="170" y="320" width="100" height="50" as="geometry" />
        </mxCell>
        <mxCell id="T6ibIjyXnq24iasV9r0d-1" value="新加坡08" style="rounded=0;whiteSpace=wrap;html=1;imageAspect=1;gradientDirection=east;direction=east;fillColor=#dae8fc;strokeColor=#6c8ebf;" vertex="1" parent="1">
          <mxGeometry x="460" y="320" width="100" height="50" as="geometry" />
        </mxCell>
        <mxCell id="T6ibIjyXnq24iasV9r0d-3" value="新加坡07" style="rounded=0;whiteSpace=wrap;html=1;imageAspect=1;gradientDirection=east;direction=east;fillColor=#dae8fc;strokeColor=#6c8ebf;" vertex="1" parent="1">
          <mxGeometry x="314" y="170" width="100" height="50" as="geometry" />
        </mxCell>
      </root>
    </mxGraphModel>
  </diagram>
</mxfile>
